# xmcd
#
# Track frame offsets:
#	150
#	39098
#	72218
#	105206
#	124723
#	163479
#	191178
#	215403
#
# Disc length: 3226 seconds
#
# Revision: 1
# Processed by: cddbd v1.5PL3 Copyright (c) Steve Scherf et al.
# Submitted via: audiograbber 1.81.03
#
DISCID=6b0c9808
DTITLE=Matt Schofield Trio - The Trio, Live
DYEAR=1900
DGENRE=Blues
TTITLE0=Uncle Junior
TTITLE1=Everyday I Have The Blues
TTITLE2=Bloody Murder
TTITLE3=Treat Me Lowdown
TTITLE4=Cissy Strut
TTITLE5=Travellin' South
TTITLE6=Sittin' On Top Of The World
TTITLE7=Hippology
EXTD=Demo Disc Only
EXTT0=
EXTT1=
EXTT2=
EXTT3=
EXTT4=
EXTT5=
EXTT6=
EXTT7=
PLAYORDER=
